# xmcd
#
# Track frame offsets:
# 150
# 20198
# 31315
# 43874
# 56231
# 67243
# 80744
# 93454
# 107095
# 121314
# 131868
# 146455
# 160159
# 169284
#
# Disc length: 2519 seconds
#
#
# Revision: 0
# Processed by: cddbd v1.5.1PL0 Copyright (c) Steve Scherf et al.
# Submitted via: FreeRIP 2.942 
#
DISCID=d409d50e
DTITLE=Lola Beltran - Ay! Jalisco No Te Rajes!
DYEAR=1900
DGENRE=Ranchera
TTITLE0=Ay! Jalisco No Te Rajes!
TTITLE1=Cancion Mexicana
TTITLE2=Yo Me Muero Dondequiera
TTITLE3=La Noche Y Tu
TTITLE4=La Tequilera
TTITLE5=El Herradero
TTITLE6=Gabino Barrera
TTITLE7=La Panchita
TTITLE8=El Mariachi
TTITLE9=Ya No
TTITLE10=La Mujer Ladina
TTITLE11=La Rielera
TTITLE12=Los Arrieros
TTITLE13=No Volvere
EXTD=
EXTT0=
EXTT1=
EXTT2=
EXTT3=
EXTT4=
EXTT5=
EXTT6=
EXTT7=
EXTT8=
EXTT9=
EXTT10=
EXTT11=
EXTT12=
EXTT13=
PLAYORDER=
